<svg id="FB" xmlns="http://www.w3.org/2000/svg" viewBox="0 0 222.99 33.99"><defs><style>.cls-1{fill:#fff;}</style></defs><title>FB</title><path class="cls-1" d="M721.4,761.84v8.43a5.7,5.7,0,0,0,3-5.36c0-3.67-3.21-6.62-7.32-6.62a7.84,7.84,0,0,0-7.94,8,7.7,7.7,0,0,0,8,7.71v2.56a10.34,10.34,0,1,1,0-20.66c5.62,0,10.06,4,10.06,9,0,4.54-3.62,8.38-8.45,9.08v-4a3.17,3.17,0,0,1-1.87.53,4.45,4.45,0,0,1-4.56-4.56,4.66,4.66,0,0,1,4.46-4.61,5.18,5.18,0,0,1,2.19.53Zm-2.67,4.06a1.92,1.92,0,1,0-1.94,1.92A1.92,1.92,0,0,0,718.73,765.9Z" transform="translate(-661.39 -749.14)"/><path class="cls-1" d="M733.54,765.13V769c0,1.37,1.25,2,2.81,2v3.38c-3.62,0-6.22-2.14-6.22-5.28v-4h-1.82V762h1.82V760.4l3.41-2.47V762h2.88v3.14Z" transform="translate(-661.39 -749.14)"/><path class="cls-1" d="M749.79,762v12.12h-3.41v-.87a4,4,0,0,1-3,1.13,6.34,6.34,0,0,1,0-12.65,4.61,4.61,0,0,1,3,1.11V762Zm-3.26,6.07a2.76,2.76,0,0,0-2.76-2.93,2.93,2.93,0,0,0,0,5.86A2.75,2.75,0,0,0,746.53,768.06Z" transform="translate(-661.39 -749.14)"/><path class="cls-1" d="M755.6,756.22v17.89h-3.41V756.22Z" transform="translate(-661.39 -749.14)"/><path class="cls-1" d="M761.4,756.22v17.89H758V756.22Z" transform="translate(-661.39 -749.14)"/><path class="cls-1" d="M775.21,771.85a6.53,6.53,0,0,1-5.33,2.52,6.46,6.46,0,0,1-6.58-6.31,6.31,6.31,0,0,1,6.29-6.34,6.4,6.4,0,0,1,6,4.27l-6.77,4.85a2.78,2.78,0,0,0,1,.15,3,3,0,0,0,2.61-1.23Zm-8.36-3,4.42-3.14a2.73,2.73,0,0,0-1.68-.58,3,3,0,0,0-2.74,3.72Z" transform="translate(-661.39 -749.14)"/><path class="cls-1" d="M784.47,765.3a3.22,3.22,0,0,0-1.08-.17c-1.32,0-2.45,1-2.45,2.93v6.05h-3.41V762h3.41v.84a3.61,3.61,0,0,1,2.69-1.11,4.85,4.85,0,0,1,.84,0Z" transform="translate(-661.39 -749.14)"/><path class="cls-1" d="M789.39,756.22v6.61a4.61,4.61,0,0,1,3-1.11,6.34,6.34,0,0,1,0,12.65,4,4,0,0,1-3-1.13v.87H786V756.22Zm5.45,11.84a2.83,2.83,0,0,0-2.84-2.93,2.94,2.94,0,0,0,0,5.86A2.82,2.82,0,0,0,794.84,768.06Z" transform="translate(-661.39 -749.14)"/><path class="cls-1" d="M812.36,768.06a6.4,6.4,0,0,1-6.39,6.31,6.33,6.33,0,0,1,0-12.65A6.39,6.39,0,0,1,812.36,768.06Zm-3.48,0A2.87,2.87,0,1,0,806,771,2.83,2.83,0,0,0,808.88,768.06Z" transform="translate(-661.39 -749.14)"/><path class="cls-1" d="M821.19,765.3a3.22,3.22,0,0,0-1.08-.17c-1.32,0-2.45,1-2.45,2.93v6.05h-3.41V762h3.41v.84a3.61,3.61,0,0,1,2.69-1.11,4.85,4.85,0,0,1,.84,0Z" transform="translate(-661.39 -749.14)"/><path class="cls-1" d="M834.51,756.22v17.89H831.1v-.87a4,4,0,0,1-3,1.13,6.34,6.34,0,0,1,0-12.65,4.61,4.61,0,0,1,3,1.11v-6.61Zm-3.27,11.84a2.75,2.75,0,0,0-2.76-2.93,2.93,2.93,0,0,0,0,5.86A2.74,2.74,0,0,0,831.24,768.06Z" transform="translate(-661.39 -749.14)"/><path class="cls-1" d="M848.31,771.85a6.69,6.69,0,0,1-11.91-3.79,6.31,6.31,0,0,1,6.29-6.34,6.39,6.39,0,0,1,6,4.27L842,770.84a2.78,2.78,0,0,0,1,.15,3,3,0,0,0,2.62-1.23Zm-8.35-3,4.41-3.14a2.73,2.73,0,0,0-1.68-.58,2.83,2.83,0,0,0-2.83,2.93A2.48,2.48,0,0,0,840,768.85Z" transform="translate(-661.39 -749.14)"/><path class="cls-1" d="M854.57,772.59a1.85,1.85,0,1,1-1.85-1.84A1.79,1.79,0,0,1,854.57,772.59Z" transform="translate(-661.39 -749.14)"/><path class="cls-1" d="M857,762h3.41v6a2.71,2.71,0,0,0,2.5,3,2.69,2.69,0,0,0,2.93-3v-6h3.38v12.12h-3.38v-.87a5,5,0,0,1-3.39,1.13c-3.19,0-5.45-2.74-5.45-6.07Z" transform="translate(-661.39 -749.14)"/><path class="cls-1" d="M870.31,762h3.75l3.5,7.51L881,762h3.38l-8.33,17.9h-3.53l3.24-6.94Z" transform="translate(-661.39 -749.14)"/><path class="cls-1" d="M695.59,766.24a17.1,17.1,0,1,0-19.77,16.89v-12h-4.34v-4.94h4.34v-3.77c0-4.29,2.55-6.65,6.46-6.65a26.44,26.44,0,0,1,3.82.33v4.21H684a2.47,2.47,0,0,0-2.79,2.67v3.21h4.74l-.75,4.94h-4v12A17.1,17.1,0,0,0,695.59,766.24Z" transform="translate(-661.39 -749.14)"/></svg>