<svg id="IG" xmlns="http://www.w3.org/2000/svg" viewBox="0 0 218.89 31.09"><defs><style>.cls-1{fill:#fff;}</style></defs><title>IG</title><path class="cls-1" d="M447.05,761.84v8.43a5.7,5.7,0,0,0,3-5.36c0-3.67-3.21-6.62-7.32-6.62a7.85,7.85,0,0,0-7.94,8,7.71,7.71,0,0,0,8,7.71v2.56a10.34,10.34,0,1,1,0-20.66c5.62,0,10.06,4,10.06,9,0,4.54-3.62,8.38-8.45,9.08v-4a3.17,3.17,0,0,1-1.87.53,4.45,4.45,0,0,1-4.56-4.56,4.66,4.66,0,0,1,4.46-4.61,5.18,5.18,0,0,1,2.19.53Zm-2.66,4.06a1.92,1.92,0,1,0-1.95,1.92A1.93,1.93,0,0,0,444.39,765.9Z" transform="translate(-391.14 -749.79)"/><path class="cls-1" d="M459.19,765.13V769c0,1.37,1.25,2,2.81,2v3.38c-3.62,0-6.21-2.14-6.21-5.28v-4H454V762h1.83V760.4l3.4-2.47V762h2.88v3.14Z" transform="translate(-391.14 -749.79)"/><path class="cls-1" d="M475.44,762v12.12H472v-.87a4,4,0,0,1-2.95,1.13,6.34,6.34,0,0,1,0-12.65,4.59,4.59,0,0,1,2.95,1.11V762Zm-3.26,6.07a2.76,2.76,0,0,0-2.76-2.93,2.93,2.93,0,0,0,0,5.86A2.75,2.75,0,0,0,472.18,768.06Z" transform="translate(-391.14 -749.79)"/><path class="cls-1" d="M481.25,756.22v17.89h-3.41V756.22Z" transform="translate(-391.14 -749.79)"/><path class="cls-1" d="M487.06,756.22v17.89h-3.41V756.22Z" transform="translate(-391.14 -749.79)"/><path class="cls-1" d="M500.86,771.85a6.53,6.53,0,0,1-5.33,2.52,6.46,6.46,0,0,1-6.58-6.31,6.31,6.31,0,0,1,6.29-6.34,6.4,6.4,0,0,1,6.05,4.27l-6.77,4.85a2.78,2.78,0,0,0,1,.15,3,3,0,0,0,2.61-1.23Zm-8.36-3,4.42-3.14a2.73,2.73,0,0,0-1.68-.58,3,3,0,0,0-2.74,3.72Z" transform="translate(-391.14 -749.79)"/><path class="cls-1" d="M510.12,765.3a3.22,3.22,0,0,0-1.08-.17c-1.32,0-2.45,1-2.45,2.93v6.05h-3.41V762h3.41v.84a3.63,3.63,0,0,1,2.69-1.11,4.85,4.85,0,0,1,.84,0Z" transform="translate(-391.14 -749.79)"/><path class="cls-1" d="M515,756.22v6.61a4.61,4.61,0,0,1,3-1.11,6.34,6.34,0,0,1,0,12.65,4,4,0,0,1-3-1.13v.87h-3.41V756.22Zm5.45,11.84a2.83,2.83,0,0,0-2.83-2.93,2.94,2.94,0,0,0,0,5.86A2.81,2.81,0,0,0,520.49,768.06Z" transform="translate(-391.14 -749.79)"/><path class="cls-1" d="M538,768.06a6.4,6.4,0,0,1-6.39,6.31,6.33,6.33,0,0,1,0-12.65A6.39,6.39,0,0,1,538,768.06Zm-3.48,0a2.87,2.87,0,1,0-2.91,2.93A2.83,2.83,0,0,0,534.53,768.06Z" transform="translate(-391.14 -749.79)"/><path class="cls-1" d="M546.84,765.3a3.22,3.22,0,0,0-1.08-.17c-1.32,0-2.45,1-2.45,2.93v6.05H539.9V762h3.41v.84a3.63,3.63,0,0,1,2.69-1.11,4.85,4.85,0,0,1,.84,0Z" transform="translate(-391.14 -749.79)"/><path class="cls-1" d="M560.16,756.22v17.89h-3.41v-.87a4,4,0,0,1-3,1.13,6.34,6.34,0,0,1,0-12.65,4.61,4.61,0,0,1,3,1.11v-6.61Zm-3.26,11.84a2.76,2.76,0,0,0-2.76-2.93,2.93,2.93,0,0,0,0,5.86A2.75,2.75,0,0,0,556.9,768.06Z" transform="translate(-391.14 -749.79)"/><path class="cls-1" d="M574,771.85a6.52,6.52,0,0,1-5.33,2.52,6.45,6.45,0,0,1-6.57-6.31,6.3,6.3,0,0,1,6.28-6.34,6.39,6.39,0,0,1,6,4.27l-6.77,4.85a2.81,2.81,0,0,0,1,.15,3,3,0,0,0,2.62-1.23Zm-8.35-3,4.41-3.14a2.73,2.73,0,0,0-1.68-.58,3,3,0,0,0-2.73,3.72Z" transform="translate(-391.14 -749.79)"/><path class="cls-1" d="M580.22,772.59a1.85,1.85,0,1,1-1.85-1.84A1.79,1.79,0,0,1,580.22,772.59Z" transform="translate(-391.14 -749.79)"/><path class="cls-1" d="M582.69,762h3.41v6a2.71,2.71,0,0,0,2.5,3,2.69,2.69,0,0,0,2.93-3v-6h3.38v12.12h-3.38v-.87a5,5,0,0,1-3.39,1.13c-3.19,0-5.45-2.74-5.45-6.07Z" transform="translate(-391.14 -749.79)"/><path class="cls-1" d="M596,762h3.74l3.5,7.51,3.44-7.51H610l-8.33,17.9h-3.53l3.24-6.94Z" transform="translate(-391.14 -749.79)"/><path class="cls-1" d="M414.92,755.34a1.82,1.82,0,1,0,1.82,1.82A1.82,1.82,0,0,0,414.92,755.34Z" transform="translate(-391.14 -749.79)"/><path class="cls-1" d="M406.81,757.68a7.66,7.66,0,1,0,7.66,7.65A7.66,7.66,0,0,0,406.81,757.68Zm0,12.56a4.91,4.91,0,1,1,4.91-4.91A4.91,4.91,0,0,1,406.81,770.24Z" transform="translate(-391.14 -749.79)"/><path class="cls-1" d="M412.89,780.88H400.48a9.35,9.35,0,0,1-9.34-9.34V759.13a9.35,9.35,0,0,1,9.34-9.34h12.41a9.35,9.35,0,0,1,9.34,9.34v12.41A9.35,9.35,0,0,1,412.89,780.88Zm-12.41-28.17a6.42,6.42,0,0,0-6.41,6.42v12.41a6.42,6.42,0,0,0,6.41,6.41h12.41a6.42,6.42,0,0,0,6.41-6.41V759.13a6.42,6.42,0,0,0-6.41-6.42Z" transform="translate(-391.14 -749.79)"/></svg>