<svg id="Proximamente" xmlns="http://www.w3.org/2000/svg" viewBox="0 0 462.65 56.53"><defs><style>.cls-1{fill:#fff;}</style></defs><title>Proximamente</title><path class="cls-1" d="M279.33,61.85v-42h14.34a17.42,17.42,0,0,1,17.61,16.93c0,10.78-7.62,18.74-18.18,18.74h-5v6.38Zm13.55-14.34c6.09,0,9.42-4.46,9.42-9.88,0-4.91-3.21-9.93-8.91-9.93h-5.31V47.51Z" transform="translate(-279.33 -6.05)"/><path class="cls-1" d="M325.73,54.57v7.28H317v-42H331.6c9.88,0,17.44,7.39,17.44,16.54,0,7.56-3.61,13.09-9.48,15.8l9.09,9.71H337l-6.89-7.28Zm3.61-7.9c7,0,10.73-3.39,10.73-9.66,0-5.13-3.05-9.31-9-9.31h-5.31v19Z" transform="translate(-279.33 -6.05)"/><path class="cls-1" d="M353.33,40.8a21.77,21.77,0,1,1,21.79,21.79A21.71,21.71,0,0,1,353.33,40.8Zm9,0c0,7.5,5.59,13.37,12.81,13.37s12.76-5.87,12.76-13.37a13.08,13.08,0,0,0-12.82-13.38C367.9,27.42,362.31,33.4,362.31,40.8Z" transform="translate(-279.33 -6.05)"/><path class="cls-1" d="M395.33,19.8h9.88l9.09,14.05,8.86-14h9.26L419.83,39.72l14.39,22.13H424.4L414.24,46.21l-9.77,15.64h-9.26l13.5-21.62Z" transform="translate(-279.33 -6.05)"/><path class="cls-1" d="M447.09,61.85h-8.75v-42h8.75Z" transform="translate(-279.33 -6.05)"/><path class="cls-1" d="M499.87,19.06V61.85h-8.69V36.51l-13.66,9.87-13.66-9.87V61.85h-8.75V19.06l22.41,17Z" transform="translate(-279.33 -6.05)"/><path class="cls-1" d="M535.72,56.21H515.34l-2.71,5.64h-9l22.19-42.79L548,61.85h-9.54Zm-16.6-7.91h12.76l-6.44-13.09Z" transform="translate(-279.33 -6.05)"/><path class="cls-1" d="M596.45,19.06V61.85h-8.69V36.51L574.1,46.38l-13.66-9.87V61.85h-8.75V19.06l22.41,17Z" transform="translate(-279.33 -6.05)"/><path class="cls-1" d="M604.52,61.85v-42h22.36v7.9H613.27v7.85h15.81v7.84H613.27V54H630.6v7.9Z" transform="translate(-279.33 -6.05)"/><path class="cls-1" d="M666.79,19.8h8.75V62.59l-29.92-24.9V61.85h-8.75V19l29.92,25.13Z" transform="translate(-279.33 -6.05)"/><path class="cls-1" d="M691,61.85V27.7H680.61V19.8h30.2v7.9H699.75V61.85Z" transform="translate(-279.33 -6.05)"/><path class="cls-1" d="M715.89,61.85v-42h22.36v7.9H724.64v7.85h15.81v7.84H724.64V54H742v7.9Z" transform="translate(-279.33 -6.05)"/><polygon class="cls-1" points="101.75 3.78 97.35 10.49 89.79 10.49 96.5 0 101.75 3.78"/></svg>